<svg width="28" height="30" viewBox="0 0 28 30" fill="none" xmlns="http://www.w3.org/2000/svg">
<path d="M25.3929 0.800049H2.60714C1.78308 0.800049 0.992763 1.126 0.410061 1.70619C-0.172641 2.28638 -0.5 3.07329 -0.5 3.8938L-0.5 26.5813C-0.5 27.4018 -0.172641 28.1887 0.410061 28.7689C0.992763 29.3491 1.78308 29.675 2.60714 29.675H11.4916V19.8582H7.4135V15.2375H11.4916V11.7158C11.4916 7.71007 13.8867 5.49739 17.5551 5.49739C19.3119 5.49739 21.149 5.80935 21.149 5.80935V9.74099H19.1248C17.1304 9.74099 16.5084 10.9733 16.5084 12.2373V15.2375H20.9606L20.2486 19.8582H16.5084V29.675H25.3929C26.2169 29.675 27.0072 29.3491 27.5899 28.7689C28.1726 28.1887 28.5 27.4018 28.5 26.5813V3.8938C28.5 3.07329 28.1726 2.28638 27.5899 1.70619C27.0072 1.126 26.2169 0.800049 25.3929 0.800049Z" fill="white"/>
</svg>
