<svg width="29" height="30" viewBox="0 0 29 30" fill="none" xmlns="http://www.w3.org/2000/svg">
<path d="M25.8929 0.5625H3.10714C1.39174 0.5625 0 1.94824 0 3.65625V26.3438C0 28.0518 1.39174 29.4375 3.10714 29.4375H25.8929C27.6083 29.4375 29 28.0518 29 26.3438V3.65625C29 1.94824 27.6083 0.5625 25.8929 0.5625ZM22.7275 10.7977C22.7404 10.9781 22.7404 11.165 22.7404 11.3455C22.7404 16.9336 18.4681 23.3725 10.6614 23.3725C8.25335 23.3725 6.02009 22.6764 4.14286 21.4775C4.48594 21.5162 4.81607 21.5291 5.16563 21.5291C7.1529 21.5291 8.97835 20.8588 10.4348 19.7244C8.57054 19.6857 7.00402 18.4676 6.46674 16.7918C7.12054 16.8885 7.7096 16.8885 8.38281 16.7145C6.44085 16.3213 4.98438 14.6197 4.98438 12.5637V12.5121C5.54754 12.8279 6.20781 13.0213 6.90045 13.0471C6.31813 12.6614 5.84077 12.1382 5.51095 11.5241C5.18113 10.9101 5.00912 10.2243 5.01027 9.52793C5.01027 8.7416 5.21741 8.01973 5.58638 7.39453C7.67723 9.95977 10.8167 11.6355 14.3382 11.816C13.7362 8.94785 15.8917 6.62109 18.481 6.62109C19.7045 6.62109 20.8049 7.13027 21.5817 7.95527C22.5397 7.7748 23.4589 7.42031 24.2746 6.93691C23.9574 7.9166 23.2906 8.7416 22.4103 9.26367C23.2647 9.17344 24.0933 8.93496 24.8571 8.60625C24.281 9.45059 23.556 10.1982 22.7275 10.7977Z" fill="white"/>
</svg>
